<?xml version="1.0" standalone="no"?>
<!DOCTYPE svg PUBLIC "-//W3C//DTD SVG 20010904//EN"
 "http://www.w3.org/TR/2001/REC-SVG-20010904/DTD/svg10.dtd">
<svg version="1.0" xmlns="http://www.w3.org/2000/svg"
 width="600.000000pt" height="600.000000pt" viewBox="0 0 600.000000 600.000000"
 preserveAspectRatio="xMidYMid meet">

<g transform="translate(0.000000,600.000000) scale(0.100000,-0.100000)"
fill="#000000" stroke="none">
<path d="M1 4583 c1 -1410 1 -1417 19 -1268 21 175 32 243 66 382 206 865 802
1606 1604 1995 341 165 646 249 1065 293 102 10 -100 13 -1317 14 l-1438 1 1
-1417z"/>
<path d="M3245 5985 c504 -53 877 -173 1285 -413 771 -454 1311 -1266 1429
-2147 12 -82 25 -204 29 -270 6 -76 10 425 11 1363 l1 1482 -1437 -1 c-1218
-1 -1420 -4 -1318 -14z"/>
<path d="M2705 5944 c-305 -31 -579 -102 -863 -224 -183 -78 -205 -89 -360
-182 -609 -365 -1061 -926 -1293 -1605 -192 -563 -197 -1230 -13 -1817 195
-623 602 -1176 1139 -1548 391 -271 845 -445 1316 -505 185 -23 545 -23 734 0
605 76 1179 343 1632 759 194 178 385 406 511 608 50 81 163 293 182 340 7 19
17 40 22 46 4 6 33 80 64 165 142 389 201 776 176 1166 -27 411 -98 711 -254
1063 -84 191 -249 462 -381 628 -414 518 -983 882 -1622 1037 -178 43 -226 51
-414 70 -183 18 -397 18 -576 -1z m711 -3722 c14 -9 6 -72 -10 -72 -6 0 -16
10 -21 23 -14 30 -58 34 -84 8 -37 -37 -22 -143 21 -156 30 -10 58 4 58 30 0
14 -7 25 -20 28 -36 9 -21 27 24 27 l43 0 -5 -52 c-2 -29 -6 -55 -8 -57 -3 -3
-31 -7 -64 -9 -55 -4 -61 -2 -90 26 -26 26 -30 38 -30 85 0 58 23 101 64 117
26 11 107 12 122 2z m188 -9 c34 -122 58 -193 66 -193 6 0 10 -7 10 -15 0 -11
-12 -15 -50 -15 -54 0 -56 1 -38 29 18 30 3 53 -33 49 -40 -4 -62 -46 -29 -55
33 -9 11 -23 -36 -23 -43 0 -53 7 -35 25 6 6 26 53 46 105 21 52 39 98 42 103
9 14 52 7 57 -10z m208 -60 c14 -45 28 -72 31 -63 3 8 16 43 28 78 22 62 22
62 60 62 40 0 52 -13 23 -24 -14 -5 -15 -18 -9 -94 4 -56 12 -91 21 -98 20
-16 7 -24 -38 -24 -36 0 -49 12 -28 25 12 8 13 95 1 114 -6 9 -16 -9 -33 -60
-15 -46 -30 -74 -39 -74 -9 0 -24 30 -40 77 -14 43 -29 75 -32 71 -11 -10 -8
-121 3 -128 21 -13 9 -25 -25 -25 -35 0 -46 15 -26 36 5 5 12 46 16 91 6 71 5
84 -9 89 -26 10 -7 24 33 24 l37 0 26 -77z m298 68 c0 -5 -7 -14 -15 -21 -22
-18 -22 -178 0 -186 27 -11 5 -24 -41 -24 -41 0 -57 11 -34 25 6 3 10 46 10
96 0 53 -4 89 -10 89 -5 0 -10 7 -10 15 0 11 12 15 50 15 28 0 50 -4 50 -9z
m152 -68 l53 -78 3 59 c2 46 0 62 -13 68 -25 14 -7 28 36 28 39 0 48 -7 29
-26 -6 -6 -13 -57 -18 -115 -5 -81 -10 -104 -22 -104 -8 0 -37 35 -65 77 -27
43 -53 78 -57 78 -5 0 -8 -27 -8 -60 0 -45 4 -62 15 -66 30 -12 14 -24 -30
-24 -45 0 -54 7 -35 26 6 6 13 46 16 90 6 66 4 82 -10 93 -25 21 -19 31 19 31
32 0 38 -6 87 -77z m326 68 c19 -12 11 -65 -10 -69 -13 -2 -18 3 -18 17 0 26
-39 37 -70 21 -65 -35 -40 -170 33 -170 28 0 40 41 16 62 -28 24 -24 28 25 28
l44 0 -5 -47 c-6 -58 -23 -73 -79 -73 -55 0 -87 15 -107 50 -35 58 -9 151 47
176 35 15 104 18 124 5z"/>
<path d="M3551 2147 c-16 -41 -14 -47 15 -47 22 0 24 3 18 23 -14 48 -22 54
-33 24z"/>
<path d="M1 1458 l-1 -1458 1438 1 c1212 1 1418 4 1317 14 -423 44 -705 121
-1055 288 -601 285 -1114 799 -1400 1400 -165 349 -251 668 -285 1062 -11 130
-13 -44 -14 -1307z"/>
<path d="M5986 2799 c-23 -383 -126 -770 -297 -1113 -65 -130 -153 -283 -207
-361 -20 -27 -45 -63 -56 -80 -129 -186 -373 -438 -586 -606 -144 -113 -333
-231 -510 -319 -149 -73 -155 -76 -255 -114 -285 -107 -511 -159 -835 -191
-106 -10 99 -13 1318 -14 l1442 -1 0 1455 c0 800 -2 1455 -3 1455 -2 0 -7 -50
-11 -111z"/>
</g>
</svg>
